                 Abraham Lincoln Vs Zombies 2012 720p BrRip X264

                     ***************************************





Movie Info

**********



Director: Richard Schenkman
Writers: Karl T. Hirsch, J. Lauren Proctor
Stars: Bill Oberst Jr, Kent Igleheart and Rhianna Van Helton..
Country: USA
Language: English
Release Date: 29 May 2012 USA
Genres: Horror 



Video Characteristics

*********************



Video
ID                             : 1
Format                         : AVC
Format/Info                    : Advanced Video Codec
Format profile                 : High@L4.0
Format settings, CABAC         : Yes
Format settings, ReFrames      : 7 frames
Codec ID                       : avc1
Codec ID/Info                  : Advanced Video Coding
Duration                       : 1h 36mn
Bit rate                       : 845 Kbps
Maximum bit rate               : 6 288 Kbps
Width                          : 1280 pixels
Height                         : 720 pixels
Display aspect ratio           : 16:9
Frame rate mode                : Constant
Frame rate                     : 23.976 fps
Color space                    : YUV
Chroma subsampling             : 4:2:0
Bit depth                      : 8 bits
Scan type                      : Progressive
Bits/(Pixel*Frame)             : 0.038
Stream size                    : 582 MiB (89%)
Writing library                : x264 core 120 r2164 da19765
Encoded date                   : UTC 2012-07-19 00:05:35
Tagged date                    : UTC 2012-07-19 00:06:42

Audio
ID                             : 2
Format                         : AAC
Format/Info                    : Advanced Audio Codec
Format profile                 : LC
Codec ID                       : 40
Duration                       : 1h 36mn
Bit rate mode                  : Variable
Bit rate                       : 96.0 Kbps
Maximum bit rate               : 147 Kbps
Channel(s)                     : 2 channels
Channel positions              : Front: L R
Sampling rate                  : 48.0 KHz
Compression mode               : Lossy
Stream size                    : 66.1 MiB (10%)
Encoded date                   : UTC 2012-07-19 00:06:38
Tagged date                    : UTC 2012-07-19 00:06:42




Multi Screenshots

*****************


 
http://bayimg.com/laAlfaaEc






Movie Plot
**********

As Abraham Lincoln labors over the Gettysburg address, the importance of which he is fully aware, he learns that a menace from his past has returned, threatening to tear the already fractured nation to pieces. He must journey behind enemy lines to face an foe far more fearsome than the Confederate army: the walking dead.   




              Enjoy and Please don't forget to seed...!!!